<svg xmlns="http://www.w3.org/2000/svg" width="1024" height="1024" viewBox="0 0 1024 1024" role="img" aria-labelledby="title">
  <title id="title">Easy Stream Save logo</title>
  <defs>
    <linearGradient id="mark" x1="232" y1="146" x2="782" y2="830" gradientUnits="userSpaceOnUse">
      <stop offset="0" stop-color="#74f0c5"/>
      <stop offset="0.48" stop-color="#1dc8d7"/>
      <stop offset="1" stop-color="#1593e6"/>
    </linearGradient>
    <filter id="shadow" x="-18%" y="-18%" width="136%" height="136%">
      <feDropShadow dx="0" dy="28" stdDeviation="34" flood-color="#042936" flood-opacity="0.28"/>
    </filter>
  </defs>
  <path filter="url(#shadow)" fill="url(#mark)" d="M266 238c0-82 89-134 160-93l376 217c71 41 71 144 0 185L426 764c-71 41-160-10-160-93V238Z"/>
  <path fill="#ffffff" fill-opacity=".92" d="M386 343c0-34 37-56 67-39l202 117c30 17 30 60 0 77L453 615c-30 17-67-4-67-39V343Z"/>
</svg>
